<?xml version="1.0" standalone="no"?>
<!DOCTYPE svg PUBLIC "-//W3C//DTD SVG 20010904//EN"
 "http://www.w3.org/TR/2001/REC-SVG-20010904/DTD/svg10.dtd">
<svg version="1.0" xmlns="http://www.w3.org/2000/svg"
 width="700.000000pt" height="700.000000pt" viewBox="0 0 700.000000 700.000000"
 preserveAspectRatio="xMidYMid meet">
<metadata>
Created by potrace 1.11, written by Peter Selinger 2001-2013
</metadata>
<g transform="translate(0.000000,700.000000) scale(0.100000,-0.100000)"
fill="#000000" stroke="none">
<path d="M3155 6984 c-1506 -149 -2754 -1258 -3074 -2734 -45 -204 -81 -488
-81 -634 l0 -49 267 7 c986 25 1507 95 1916 257 466 185 801 520 985 985 122
307 195 703 232 1264 11 174 30 674 30 823 l0 97 -67 -1 c-38 -1 -131 -8 -208
-15z"/>
<path d="M3640 6843 c0 -211 17 -622 35 -868 55 -739 183 -1197 434 -1549 117
-165 322 -355 496 -458 440 -262 985 -361 2158 -394 l237 -7 0 44 c0 147 -37
439 -81 639 -300 1383 -1417 2453 -2819 2700 -94 16 -394 50 -447 50 -10 0
-13 -32 -13 -157z"/>
<path d="M5 3279 c71 -976 500 -1822 1245 -2460 454 -390 1080 -677 1685 -774
119 -20 369 -45 444 -45 l54 0 -7 232 c-20 692 -55 1090 -127 1436 -94 451
-247 766 -498 1026 -452 466 -1075 632 -2484 662 l-318 7 6 -84z"/>
<path d="M6575 3353 c-1328 -44 -1926 -225 -2358 -711 -373 -420 -522 -983
-567 -2147 -14 -362 -13 -495 3 -495 51 0 343 33 440 50 389 68 777 204 1109
390 881 494 1514 1350 1722 2330 34 160 74 469 76 583 0 6 -231 7 -425 0z"/>
</g>
</svg>
